# .PCD v0.7 - Point Cloud Data file format
VERSION 0.7
FIELDS x y z
SIZE 4 4 4
TYPE F F F
COUNT 1 1 1
WIDTH 161
HEIGHT 1
VIEWPOINT 0 0 0 1 0 0 0
POINTS 161
DATA ascii
1.423095703125 0.3785898685455322 -0.20656901597976685
1.3991005420684814 0.4089931547641754 -0.20335519313812256
1.4387621879577637 0.38285455107688904 -0.19937385618686676
1.4625952243804932 0.38447320461273193 -0.1930173635482788
1.4361003637313843 0.41040995717048645 -0.19921846687793732
1.4907678365707397 0.41637787222862244 -0.19693341851234436
1.524269461631775 0.4291037619113922 -0.19300855696201324
1.5615016222000122 0.4259791970252991 -0.1856621652841568
1.6081030368804932 0.4388173222541809 -0.1806330531835556
1.5394401550292969 0.45704779028892517 -0.18667511641979218
1.5811078548431396 0.46779486536979675 -0.1778656393289566
1.619439721107483 0.4596930742263794 -0.17844144999980927
1.651106357574463 0.46149083971977234 -0.17469099164009094
0.33452439308166504 0.03480387479066849 -0.10744570940732956
0.37923991680145264 0.11575089395046234 -0.1199052706360817
0.4368059039115906 0.18883676826953888 -0.14867928624153137
1.0765736103057861 0.31856200098991394 -0.1067073792219162
0.22201849520206451 0.01731226220726967 -0.08297397196292877
0.26217982172966003 0.005273247603327036 -0.055321961641311646
0.3045152723789215 0.0051621631719172 -0.07339576631784439
0.5636216402053833 0.0459592230618 -0.0673278197646141
0.2295263707637787 0.05969667807221413 -0.08762304484844208
0.2650280296802521 0.0926482304930687 -0.05324406549334526
0.5346974730491638 0.07920751720666885 -0.06376143544912338
0.555766761302948 0.055325284600257874 -0.06656888872385025
0.26473569869995117 0.10194369405508041 -0.05468761548399925
0.53721684217453 0.10475976765155792 -0.0654711127281189
0.5536214709281921 0.11791917681694031 -0.060411833226680756
0.7303831577301025 0.21859820187091827 -0.052920762449502945
0.8680518865585327 0.23141537606716156 -0.05137460306286812
0.945054829120636 0.24574753642082214 -0.0559532456099987
0.9700550436973572 0.2458745688199997 -0.057405341416597366
1.0420607328414917 0.2709398567676544 -0.0686429888010025
1.0655639171600342 0.27853864431381226 -0.08492625504732132
1.071134090423584 0.31704267859458923 -0.09294901043176651
0.17579619586467743 -0.07342442125082016 -0.02711881883442402
0.1819474995136261 -0.013385428115725517 -0.015349434688687325
0.1697922646999359 0.02096381224691868 -0.04348059743642807
0.2304469794034958 0.04532528296113014 -0.04105547443032265
0.2590184509754181 0.04544813930988312 -0.04109475389122963
0.5480174422264099 0.04856810346245766 -0.027789559215307236
0.5541164875030518 0.04475175589323044 -0.02551097422838211
0.17994822561740875 0.05261603370308876 -0.04118964821100235
0.2206403762102127 0.05338110402226448 -0.04029785469174385
0.2677794098854065 0.09228701144456863 -0.026222778484225273
0.5359704494476318 0.07620355486869812 -0.02556835301220417
0.5526471138000488 0.052109263837337494 -0.02346624806523323
0.26820749044418335 0.10287108272314072 -0.02528042159974575
0.5419843196868896 0.10371853411197662 -0.03454500436782837
0.555627703666687 0.11164547502994537 -0.02286851406097412
0.7281407713890076 0.21960900723934174 -0.02796665020287037
0.7704910039901733 0.21958324313163757 -0.023282065987586975
0.8212237358093262 0.2231985330581665 -0.024516530334949493
0.8736792802810669 0.22331663966178894 -0.02839123085141182
0.9171833395957947 0.2216339260339737 -0.02460719645023346
0.21065939962863922 -0.05427177622914314 0.030459489673376083
0.16491390764713287 -0.017487462610006332 0.026330241933465004
0.5470085740089417 0.0490560308098793 0.04809657856822014
0.5707252025604248 0.04778485372662544 0.026393234729766846
0.27758467197418213 0.09461628645658493 0.009129523299634457
0.5413328409194946 0.07735450565814972 0.005439805798232555
0.5637440085411072 0.06936265528202057 0.02698461152613163
0.2947240173816681 0.11277571320533752 0.04130057618021965
0.5561898946762085 0.1032971665263176 0.0031935134902596474
0.7423788905143738 0.2308015525341034 0.0016353026730939746
0.7801501154899597 0.23349922895431519 0.011193879880011082
0.8236441016197205 0.2330208271741867 0.01692650467157364
0.8697937726974487 0.2319961041212082 0.018776297569274902
0.9254726767539978 0.23551149666309357 0.02061658911406994
0.9715889096260071 0.23406490683555603 0.02472669817507267
1.0189167261123657 0.23042602837085724 0.032641563564538956
1.061754584312439 0.2249918431043625 0.037388384342193604
1.119039535522461 0.22565563023090363 0.04470992460846901
0.8260459303855896 0.25616922974586487 0.035346828401088715
0.8754206299781799 0.25994718074798584 0.0432186983525753
0.9215453863143921 0.2616128921508789 0.04856214299798012
0.16999618709087372 -0.017668453976511955 0.054840005934238434
0.22799012064933777 -0.04547597095370293 0.06554814428091049
0.52402663230896 0.04411691054701805 0.08089844882488251
0.5296168923377991 0.06974296271800995 0.07732225954532623
0.5500127077102661 0.07593131065368652 0.052387066185474396
0.3010205924510956 0.12140878289937973 0.05213510990142822
0.9847753643989563 0.2417566180229187 0.07806236296892166
1.023277759552002 0.2344519942998886 0.07255434989929199
1.0739178657531738 0.2241944968700409 0.07663045078516006
1.1171351671218872 0.22106090188026428 0.07482351362705231
1.1583707332611084 0.22098425030708313 0.05650215595960617
0.8980478048324585 0.27863356471061707 0.05308886989951134
0.9252694845199585 0.28119534254074097 0.07645443081855774
0.9658803343772888 0.25866222381591797 0.07519175857305527
0.9047141671180725 0.30180618166923523 0.08911475539207458
0.4861659109592438 0.036389194428920746 0.1371493935585022
0.5045946836471558 0.04025757685303688 0.11109670251607895
0.48737314343452454 0.06933866441249847 0.133297398686409
0.5044782757759094 0.06785845756530762 0.10916323214769363
0.7950171828269958 0.1557435244321823 0.13169334828853607
0.8212200403213501 0.17035265266895294 0.12936048209667206
0.8738231658935547 0.18294011056423187 0.12071222066879272
0.9207755923271179 0.19227242469787598 0.11427956074476242
0.9660268425941467 0.19528728723526 0.10876859724521637
0.8890256881713867 0.2033110409975052 0.1293129324913025
0.9439073204994202 0.236734077334404 0.12187696248292923
0.9617878794670105 0.22844038903713226 0.11924496293067932
1.0150318145751953 0.22067424654960632 0.10293316096067429
1.0695306062698364 0.219647616147995 0.11322855949401855
1.125533103942871 0.23108842968940735 0.10796517133712769
1.1530312299728394 0.22546185553073883 0.11447153985500336
0.8896673321723938 0.2948266267776489 0.12357249110937119
0.9206097722053528 0.2716708183288574 0.1217716783285141
0.8824185729026794 0.3092200458049774 0.1337532252073288
0.9055449366569519 0.3052617013454437 0.11593881249427795
0.46636608242988586 0.03289789706468582 0.16331206262111664
0.46720021963119507 0.07072604447603226 0.16234354674816132
0.9280245304107666 0.21238304674625397 0.15328572690486908
0.9810602068901062 0.23358193039894104 0.1756133735179901
1.0023548603057861 0.22303766012191772 0.19414249062538147
0.9355995059013367 0.2937835156917572 0.16592226922512054
0.9809246063232422 0.2749876081943512 0.17487630248069763
1.0048327445983887 0.2810218632221222 0.1849987655878067
0.8928769826889038 0.3248003125190735 0.15544316172599792
0.9200935363769531 0.31875118613243103 0.1774979829788208
0.9417946934700012 0.35363128781318665 0.18863363564014435
0.9689489603042603 0.38010305166244507 0.1913588047027588
0.9970240592956543 0.24489092826843262 0.20389395952224731
1.0271008014678955 0.23249679803848267 0.2237716019153595
1.0543491840362549 0.22335650026798248 0.24129915237426758
0.9453663229942322 0.2975757122039795 0.2053690254688263
0.9801207780838013 0.2926892638206482 0.22491450607776642
1.0079281330108643 0.26911231875419617 0.22637435793876648
0.9200720191001892 0.3188229203224182 0.2199920415878296
0.9604309797286987 0.3101159930229187 0.24146278202533722
0.944542407989502 0.3532542586326599 0.207875594496727
0.9759241342544556 0.3802810609340668 0.22153134644031525
1.0025447607040405 0.39161598682403564 0.24355030059814453
1.035681962966919 0.23954428732395172 0.2715752422809601
1.0510138273239136 0.23093925416469574 0.27046826481819153
0.9869248270988464 0.28497186303138733 0.25681981444358826
1.0123716592788696 0.2700939476490021 0.27309122681617737
0.9399793744087219 0.3330930769443512 0.26592037081718445
0.9728007316589355 0.32322290539741516 0.2757115364074707
1.0096732378005981 0.3120214641094208 0.28430110216140747
0.9837526679039001 0.3739530146121979 0.2718128561973572
1.0052909851074219 0.3904529809951782 0.27486810088157654
1.0340087413787842 0.24472244083881378 0.33415064215660095
1.0672962665557861 0.2463860809803009 0.3218154311180115
1.0391591787338257 0.281514048576355 0.3222264051437378
1.0643776655197144 0.26921743154525757 0.3255841135978699
0.9823037981987 0.33292534947395325 0.31746718287467957
1.0189086198806763 0.3268575072288513 0.32579684257507324
1.0572690963745117 0.311937153339386 0.345525860786438
0.887365996837616 0.3859372138977051 0.3387625217437744
0.9230493903160095 0.37209221720695496 0.3263196349143982
0.9751244187355042 0.364820271730423 0.31838661432266235
0.8761616349220276 0.4080084264278412 0.336669385433197
1.0463427305221558 0.26151713728904724 0.35180434584617615
0.9391553997993469 0.34461385011672974 0.36748629808425903
0.973569929599762 0.333649218082428 0.3704807758331299
1.0181150436401367 0.3318375051021576 0.36843088269233704
1.0685932636260986 0.3372921943664551 0.3586522936820984
0.8837220072746277 0.3794209957122803 0.3526099920272827
0.9162753224372864 0.35659652948379517 0.35781267285346985
